<?xml version="1.0" standalone="no"?>
<!DOCTYPE svg PUBLIC "-//W3C//DTD SVG 20010904//EN"
 "http://www.w3.org/TR/2001/REC-SVG-20010904/DTD/svg10.dtd">
<svg version="1.0" xmlns="http://www.w3.org/2000/svg"
 width="507.000000pt" height="213.000000pt" viewBox="0 0 507.000000 213.000000"
 preserveAspectRatio="xMidYMid meet">

<g transform="translate(0.000000,213.000000) scale(0.100000,-0.100000)"
fill="#000000" stroke="none">
<path d="M1317 1510 c-39 -31 -115 -137 -155 -215 -70 -139 -109 -295 -114
-452 l-3 -83 -45 0 c-116 0 -326 -47 -415 -93 -63 -32 -25 -31 69 2 140 50
241 64 396 58 146 -6 230 -22 328 -63 34 -15 66 -24 69 -20 10 10 -8 23 -62
44 -59 23 -59 24 -17 142 42 119 57 215 56 360 -1 174 -28 311 -64 330 -13 7
-24 4 -43 -10z m47 -27 c42 -136 45 -418 7 -565 -19 -74 -57 -174 -71 -191
-10 -11 -100 13 -100 27 0 6 27 143 61 304 55 265 63 319 42 299 -3 -4 -32
-131 -64 -282 -31 -152 -60 -287 -63 -301 -6 -23 -11 -25 -54 -22 l-47 3 -3
50 c-4 63 13 192 39 292 27 106 96 245 165 332 58 72 78 85 88 54z"/>
<path d="M740 1456 c0 -14 5 -28 10 -31 6 -4 10 7 10 24 0 17 -4 31 -10 31 -5
0 -10 -11 -10 -24z"/>
<path d="M630 1432 c0 -14 39 -46 47 -39 3 4 -2 16 -12 27 -19 21 -35 26 -35
12z"/>
<path d="M836 1421 c-12 -13 -14 -21 -6 -26 13 -8 40 12 40 31 0 20 -14 17
-34 -5z"/>
<path d="M1760 1413 c-23 -12 -37 -28 -44 -50 -13 -47 11 -77 81 -103 67 -24
87 -44 72 -71 -15 -29 -74 -26 -94 5 -11 17 -22 22 -40 18 -38 -7 -39 -18 -6
-54 28 -31 33 -33 95 -33 74 0 101 17 112 70 8 43 -24 79 -89 101 -78 25 -91
39 -61 68 21 22 54 20 80 -5 25 -24 67 -18 62 8 -9 49 -110 76 -168 46z"/>
<path d="M2880 1423 c-37 -14 -60 -47 -60 -84 0 -43 10 -53 86 -82 65 -26 85
-47 65 -71 -24 -29 -101 -11 -101 23 0 4 -13 6 -30 3 -32 -5 -36 -12 -20 -43
31 -56 153 -66 197 -15 24 29 29 65 13 96 -5 10 -41 30 -80 45 -49 19 -70 32
-70 44 0 42 56 55 88 20 14 -14 26 -18 45 -14 22 6 24 10 16 29 -6 12 -19 28
-30 34 -23 15 -97 24 -119 15z"/>
<path d="M2086 1411 c-6 -10 -106 -280 -106 -287 0 -2 13 -4 29 -4 23 0 31 6
40 30 10 29 11 30 80 30 69 0 69 0 76 -30 5 -25 11 -30 36 -30 16 0 29 3 29 7
0 3 -24 71 -52 150 l-53 143 -37 0 c-20 0 -39 -4 -42 -9z m68 -115 c9 -27 16
-51 16 -53 0 -2 -20 -3 -45 -3 -25 0 -45 2 -45 4 0 18 45 115 50 109 4 -4 15
-30 24 -57z"/>
<path d="M2330 1270 l0 -150 30 0 c29 0 29 1 32 63 l3 62 53 3 c48 3 52 5 52
28 0 23 -3 24 -55 24 l-55 0 0 35 0 35 60 0 c57 0 60 1 60 25 0 25 -1 25 -90
25 l-90 0 0 -150z"/>
<path d="M2580 1270 l0 -150 85 0 85 0 0 30 c0 30 -1 30 -55 30 l-55 0 0 35 0
35 50 0 c47 0 50 2 50 25 0 23 -3 25 -50 25 l-50 0 0 35 0 35 55 0 c52 0 55 1
55 25 0 25 -1 25 -85 25 l-85 0 0 -150z"/>
<path d="M3110 1304 c0 -63 5 -124 10 -135 36 -67 184 -62 210 7 6 14 10 75
10 135 l0 109 -30 0 -30 0 0 -108 c0 -93 -3 -111 -18 -125 -23 -21 -56 -22
-76 -1 -13 12 -16 39 -16 125 l0 109 -30 0 -30 0 0 -116z"/>
<path d="M3430 1270 l0 -150 30 0 30 0 0 70 c0 39 4 70 9 70 5 0 27 -31 50
-70 39 -65 44 -70 77 -70 l34 0 -44 67 c-44 65 -49 83 -21 83 20 0 35 32 35
74 0 55 -35 76 -126 76 l-74 0 0 -150z m139 82 c15 -28 -5 -52 -44 -52 -33 0
-35 2 -35 35 0 33 2 35 35 35 23 0 38 -6 44 -18z"/>
<path d="M3720 1270 l0 -150 30 0 30 0 0 65 0 65 50 0 c47 0 50 2 50 25 0 23
-3 25 -50 25 l-50 0 0 35 0 35 60 0 c57 0 60 1 60 25 0 25 -1 25 -90 25 l-90
0 0 -150z"/>
<path d="M3960 1270 l0 -150 90 0 90 0 0 30 0 30 -61 0 -60 0 3 33 c3 31 5 32
51 35 42 3 47 5 47 28 0 22 -4 24 -50 24 l-50 0 0 35 0 35 60 0 c57 0 60 1 60
25 0 25 -1 25 -90 25 l-90 0 0 -150z"/>
<path d="M4220 1270 l0 -150 30 0 30 0 0 70 c0 39 4 70 8 70 5 0 26 -31 48
-70 38 -67 40 -70 77 -70 l39 0 -47 67 -47 66 31 24 c40 32 43 82 6 118 -21
22 -33 25 -100 25 l-75 0 0 -150z m138 71 c4 -28 -12 -41 -50 -41 -25 0 -28 3
-28 36 0 35 1 35 38 32 30 -2 38 -7 40 -27z"/>
<path d="M699 1371 c-36 -36 -37 -73 -4 -106 49 -49 135 -15 135 54 0 20 -9
37 -31 55 -40 34 -64 33 -100 -3z m96 -25 c35 -53 -34 -115 -79 -70 -19 18
-21 65 -4 82 21 21 66 14 83 -12z"/>
<path d="M590 1321 c0 -6 5 -13 10 -16 14 -9 52 4 45 16 -8 12 -55 12 -55 0z"/>
<path d="M863 1318 c2 -7 12 -13 22 -13 10 0 20 6 23 13 2 7 -6 12 -23 12 -17
0 -25 -5 -22 -12z"/>
<path d="M647 1232 c-21 -23 -21 -32 -3 -32 20 0 41 29 29 41 -6 6 -15 3 -26
-9z"/>
<path d="M826 1242 c-7 -11 31 -48 41 -38 4 3 -2 16 -14 27 -11 12 -23 17 -27
11z"/>
<path d="M740 1185 c0 -14 5 -25 10 -25 6 0 10 11 10 25 0 14 -4 25 -10 25 -5
0 -10 -11 -10 -25z"/>
<path d="M1720 970 c-17 -17 -20 -33 -20 -115 0 -108 14 -135 70 -135 46 0 70
31 70 90 l0 50 -35 0 c-19 0 -35 -4 -35 -10 0 -5 11 -10 25 -10 23 0 25 -4 25
-45 0 -39 -4 -47 -25 -57 -19 -8 -31 -8 -50 0 -24 11 -25 14 -25 117 0 103 1
106 25 117 38 17 75 -3 75 -42 0 -16 5 -30 10 -30 18 0 11 49 -10 70 -11 11
-33 20 -50 20 -17 0 -39 -9 -50 -20z"/>
<path d="M1890 970 c-17 -17 -20 -33 -20 -115 0 -107 14 -135 68 -135 58 0 67
17 67 135 0 94 -2 108 -19 121 -28 20 -73 17 -96 -6z m82 -7 c15 -13 18 -32
18 -109 0 -87 -2 -95 -24 -109 -23 -16 -54 -11 -68 9 -4 6 -8 55 -8 108 0 82
3 99 18 107 25 15 43 13 64 -6z"/>
<path d="M2127 972 c-17 -19 -22 -68 -9 -88 4 -6 26 -21 50 -33 50 -25 70 -58
53 -89 -24 -44 -91 -34 -91 13 0 14 -4 25 -10 25 -19 0 -10 -49 12 -64 50 -35
108 -8 108 51 0 29 -34 73 -57 73 -21 0 -63 42 -63 64 0 13 9 31 20 41 28 25
74 10 78 -25 5 -35 22 -50 22 -19 0 61 -74 94 -113 51z"/>
<path d="M2270 891 c0 -99 10 -149 33 -163 20 -13 61 -9 85 8 21 14 22 21 20
137 l-1 122 -6 -115 c-4 -63 -10 -121 -14 -127 -10 -16 -69 -17 -85 -1 -8 8
-12 50 -12 125 0 69 -4 113 -10 113 -6 0 -10 -40 -10 -99z"/>
<path d="M2452 853 c1 -76 3 -112 5 -80 l4 58 32 -3 c27 -3 36 -11 60 -55 16
-29 33 -53 38 -53 6 0 -4 25 -21 56 l-32 55 20 22 c24 26 29 51 19 90 -8 31
-40 47 -93 47 l-34 0 2 -137z m100 100 c43 -39 10 -103 -54 -103 l-38 0 0 60
0 60 37 0 c20 0 45 -7 55 -17z"/>
<path d="M2620 855 c0 -83 4 -135 10 -135 6 0 10 27 10 60 l0 60 55 0 c30 0
55 5 55 10 0 6 -25 10 -55 10 l-55 0 0 55 0 55 55 0 c30 0 55 5 55 10 0 6 -28
10 -65 10 l-65 0 0 -135z"/>
<path d="M2862 974 c-20 -14 -22 -23 -22 -119 0 -96 2 -105 22 -119 28 -20 68
-20 94 -2 17 13 19 27 19 121 0 94 -2 108 -19 121 -26 18 -66 18 -94 -2z m80
-11 c15 -13 18 -32 18 -109 0 -87 -2 -95 -24 -109 -36 -24 -73 -6 -82 40 -12
64 0 166 21 181 25 18 44 18 67 -3z"/>
<path d="M3012 853 c1 -76 3 -112 5 -80 4 57 4 57 36 57 30 0 35 -5 60 -55 15
-30 32 -55 38 -55 6 0 -3 26 -20 57 -31 56 -31 57 -11 75 26 24 34 57 21 91
-12 31 -45 47 -97 47 l-34 0 2 -137z m102 101 c9 -8 16 -27 16 -41 0 -39 -27
-63 -72 -63 l-38 0 0 60 0 60 39 0 c23 0 46 -7 55 -16z"/>
<path d="M3252 853 l2 -138 6 115 5 115 38 -80 c22 -44 45 -95 52 -112 27 -63
35 -38 35 102 0 83 -4 135 -10 135 -6 0 -10 -44 -10 -112 l0 -113 -53 112
c-28 62 -55 113 -59 113 -5 0 -7 -62 -6 -137z"/>
<path d="M3440 970 c-17 -17 -20 -33 -20 -115 0 -82 3 -98 20 -115 26 -26 74
-26 101 1 19 19 20 30 17 121 -2 85 -6 102 -22 114 -28 20 -73 17 -96 -6z m84
-6 c12 -12 16 -37 16 -109 0 -88 -2 -96 -24 -110 -23 -16 -54 -11 -68 9 -4 6
-8 55 -8 108 0 82 3 99 18 107 25 15 48 13 66 -5z"/>
<path d="M3677 972 c-17 -19 -22 -68 -9 -88 4 -6 26 -21 49 -33 66 -33 82 -78
38 -107 -35 -23 -75 -6 -75 31 0 14 -4 25 -10 25 -19 0 -10 -49 12 -64 50 -35
108 -8 108 51 0 29 -34 73 -57 73 -21 0 -63 42 -63 64 0 13 9 31 20 41 28 25
74 10 78 -25 5 -35 22 -50 22 -19 0 61 -74 94 -113 51z"/>
<path d="M3820 891 c0 -99 10 -149 33 -163 20 -13 61 -9 85 8 21 14 22 21 20
137 l-2 122 -5 -115 c-3 -63 -10 -121 -14 -127 -10 -16 -69 -17 -85 -1 -8 8
-12 50 -12 125 0 69 -4 113 -10 113 -6 0 -10 -40 -10 -99z"/>
<path d="M4002 853 c1 -76 3 -112 5 -80 l4 58 32 -3 c27 -3 36 -11 60 -55 16
-29 33 -53 38 -53 6 0 -4 25 -21 56 l-32 55 20 22 c24 26 29 51 19 90 -8 31
-40 47 -93 47 l-34 0 2 -137z m100 100 c43 -39 10 -103 -54 -103 l-38 0 0 60
0 60 37 0 c20 0 45 -7 55 -17z"/>
<path d="M4182 853 c1 -76 3 -110 5 -75 l4 62 54 0 c30 0 55 5 55 10 0 6 -25
10 -55 10 l-55 0 0 55 0 55 55 0 c30 0 55 5 55 10 0 6 -27 10 -60 10 l-60 0 2
-137z"/>
<path d="M4346 968 c-18 -25 -21 -58 -7 -58 5 0 11 12 13 26 4 35 31 53 56 38
28 -18 27 -70 -2 -115 -14 -21 -26 -49 -25 -61 1 -21 1 -21 9 3 4 15 19 44 34
65 14 21 26 48 26 59 0 34 -28 65 -60 65 -18 0 -34 -8 -44 -22z"/>
<path d="M605 870 c-3 -6 2 -13 12 -16 10 -3 30 -12 45 -20 34 -18 69 -18 94
1 25 19 65 19 90 0 26 -20 53 -19 109 6 33 14 44 24 37 31 -8 8 -24 4 -53 -11
l-43 -23 -48 23 -48 22 -45 -22 -44 -22 -45 21 c-52 23 -53 23 -61 10z"/>
<path d="M4381 734 c0 -11 3 -14 6 -6 3 7 2 16 -1 19 -3 4 -6 -2 -5 -13z"/>
</g>
</svg>
